<svg width="60" height="60" viewBox="0 0 60 60" fill="none" xmlns="http://www.w3.org/2000/svg">
<path fill-rule="evenodd" clip-rule="evenodd" d="M30 60C13.4315 60 0 46.5685 0 30C0 13.4315 13.4315 0 30 0C46.5685 0 60 13.4315 60 30C60 46.5685 46.5685 60 30 60ZM34.8926 19.7263C34.8926 19.2478 34.7026 18.789 34.3643 18.4506C34.0259 18.1124 33.5671 17.9224 33.0887 17.9224C32.6102 17.9224 32.1514 18.1124 31.813 18.4506L21.606 28.6576C21.2678 28.996 21.0778 29.4548 21.0778 29.9333C21.0778 30.4117 21.2678 30.8705 21.606 31.2089L31.813 41.4159C32.1533 41.7445 32.6091 41.9264 33.0822 41.9223C33.5552 41.9182 34.0078 41.7284 34.3423 41.3939C34.6769 41.0594 34.8666 40.6068 34.8707 40.1337C34.8748 39.6607 34.693 39.2049 34.3643 38.8646L25.433 29.9333L34.3643 21.0019C34.7026 20.6636 34.8926 20.2047 34.8926 19.7263Z" fill="white"/>
</svg>
