<svg width="25" height="25" viewBox="0 0 25 25" fill="none" xmlns="http://www.w3.org/2000/svg">
<path d="M10.646 3.74805C10.7954 3.37876 11.0517 3.0625 11.382 2.83982C11.7123 2.61714 12.1016 2.49817 12.5 2.49817C12.8984 2.49817 13.2877 2.61714 13.618 2.83982C13.9483 3.0625 14.2046 3.37876 14.354 3.74805C15.8328 4.15473 17.1371 5.0356 18.0668 6.25538C18.9964 7.47516 19.4999 8.96639 19.5 10.5V15.197L21.332 17.945C21.4325 18.0956 21.4902 18.2707 21.499 18.4515C21.5078 18.6324 21.4673 18.8122 21.3819 18.9718C21.2965 19.1314 21.1693 19.2649 21.014 19.3579C20.8587 19.4509 20.681 19.5001 20.5 19.5H15.965C15.8446 20.3331 15.4281 21.095 14.7917 21.646C14.1553 22.197 13.3418 22.5003 12.5 22.5003C11.6582 22.5003 10.8447 22.197 10.2083 21.646C9.57194 21.095 9.1554 20.3331 9.035 19.5H4.5C4.31896 19.5001 4.1413 19.4509 3.98599 19.3579C3.83068 19.2649 3.70354 19.1314 3.61813 18.9718C3.53272 18.8122 3.49225 18.6324 3.50103 18.4515C3.50981 18.2707 3.56752 18.0956 3.668 17.945L5.5 15.197V10.5C5.5 7.27605 7.68 4.56005 10.646 3.74805ZM11.086 19.5C11.1893 19.7927 11.3808 20.0461 11.6341 20.2254C11.8875 20.4046 12.1902 20.5009 12.5005 20.5009C12.8108 20.5009 13.1135 20.4046 13.3669 20.2254C13.6202 20.0461 13.8117 19.7927 13.915 19.5H11.085H11.086ZM12.5 5.50005C11.1739 5.50005 9.90215 6.02683 8.96447 6.96451C8.02678 7.90219 7.5 9.17396 7.5 10.5V15.5C7.50005 15.6976 7.44159 15.8907 7.332 16.055L6.369 17.5H18.63L17.667 16.055C17.5578 15.8906 17.4997 15.6975 17.5 15.5V10.5C17.5 9.17396 16.9732 7.90219 16.0355 6.96451C15.0979 6.02683 13.8261 5.50005 12.5 5.50005Z" fill="white"/>
</svg>
