<svg width="221" height="40" viewBox="0 0 221 40" fill="none" xmlns="http://www.w3.org/2000/svg">
<path d="M20.7466 13.5831L10.462 1.32642" stroke="#57A04C" stroke-width="2" stroke-linecap="round"/>
<path d="M17 19.6432H1" stroke="#57A04C" stroke-width="2" stroke-linecap="round"/>
<path d="M19.417 26.4169L9.13239 38.6736" stroke="#57A04C" stroke-width="2" stroke-linecap="round"/>
<path d="M45.2899 30H43.1499L41.7099 25.7H36.0299L34.4699 30H32.4899L37.8899 15.66H40.0899L45.2899 30ZM36.5899 24.12H41.0699L38.8899 17.78L36.5899 24.12ZM49.4498 30H47.4898V15.66H49.4498V30ZM56.8362 25.34H51.9362V23.52H56.8362V25.34ZM65.9163 15.66C67.1963 15.66 68.2163 16.02 68.9963 16.72C69.7963 17.46 70.1763 18.46 70.1763 19.76C70.1763 20.88 69.8363 21.86 69.1363 22.68C68.4363 23.52 67.3563 23.94 65.9163 23.94H61.4163V30H59.4563V15.66H65.9163ZM67.0363 17.62C66.6163 17.42 66.0363 17.32 65.2763 17.32H61.4163V22.3H65.2763C66.1363 22.3 66.8563 22.1 67.3963 21.74C67.9363 21.36 68.2163 20.72 68.2163 19.78C68.2163 18.72 67.8163 18 67.0363 17.62ZM80.0162 20.58C80.9562 21.48 81.4162 22.8 81.4162 24.56C81.4162 26.24 81.0162 27.62 80.1962 28.74C79.3762 29.84 78.0962 30.38 76.3762 30.38C74.9362 30.38 73.7962 29.9 72.9362 28.92C72.0962 27.94 71.6762 26.64 71.6762 25C71.6762 23.24 72.1162 21.84 73.0162 20.8C73.8962 19.76 75.0962 19.24 76.5962 19.24C77.9562 19.24 79.0962 19.68 80.0162 20.58ZM78.9362 27.54C79.3762 26.66 79.5762 25.68 79.5762 24.6C79.5762 23.62 79.4362 22.84 79.1162 22.22C78.6162 21.26 77.7562 20.78 76.5562 20.78C75.4762 20.78 74.6962 21.18 74.2162 22C73.7162 22.82 73.4762 23.8 73.4762 24.98C73.4762 26.08 73.7162 27.02 74.2162 27.76C74.6962 28.5 75.4762 28.86 76.5362 28.86C77.6962 28.86 78.4962 28.42 78.9362 27.54ZM88.3695 19.54H90.3295L92.3895 27.74L94.5295 19.54H96.2895L93.2495 30H91.4095L89.2895 21.9L87.2295 30H85.4095L82.3895 19.54H84.3095L86.3295 27.78L88.3695 19.54ZM104.443 19.82C105.143 20.18 105.683 20.62 106.043 21.18C106.383 21.7 106.623 22.32 106.743 23.02C106.843 23.5 106.903 24.28 106.903 25.34H99.2231C99.2631 26.4 99.5231 27.24 99.9831 27.88C100.443 28.52 101.183 28.84 102.163 28.84C103.083 28.84 103.803 28.54 104.363 27.94C104.663 27.58 104.903 27.18 105.023 26.72H106.743C106.703 27.1 106.563 27.52 106.303 28C106.043 28.48 105.763 28.86 105.423 29.16C104.903 29.68 104.243 30.02 103.443 30.22C103.023 30.32 102.543 30.38 102.023 30.38C100.723 30.38 99.6031 29.9 98.7031 28.94C97.8031 28 97.3431 26.68 97.3431 24.98C97.3431 23.3 97.8031 21.92 98.7231 20.88C99.6231 19.84 100.803 19.3 102.283 19.3C103.023 19.3 103.743 19.48 104.443 19.82ZM105.083 23.94C105.023 23.18 104.863 22.56 104.583 22.1C104.123 21.26 103.303 20.84 102.183 20.84C101.363 20.84 100.703 21.14 100.143 21.7C99.6031 22.3 99.3031 23.04 99.2831 23.94H105.083ZM110.756 21.34C110.896 21 111.236 20.56 111.776 20.06C112.316 19.56 112.916 19.3 113.616 19.3C113.636 19.3 113.696 19.3 113.776 19.32L114.176 19.36V21.22C114.076 21.2 113.996 21.18 113.896 21.18C113.816 21.16 113.716 21.16 113.596 21.16C112.716 21.16 112.036 21.44 111.556 22.02C111.096 22.58 110.856 23.24 110.856 23.98V30H109.096V19.54H110.756V21.34ZM122.217 19.82C122.917 20.18 123.457 20.62 123.817 21.18C124.157 21.7 124.397 22.32 124.517 23.02C124.617 23.5 124.677 24.28 124.677 25.34H116.997C117.037 26.4 117.297 27.24 117.757 27.88C118.217 28.52 118.957 28.84 119.937 28.84C120.857 28.84 121.577 28.54 122.137 27.94C122.437 27.58 122.677 27.18 122.797 26.72H124.517C124.477 27.1 124.337 27.52 124.077 28C123.817 28.48 123.537 28.86 123.197 29.16C122.677 29.68 122.017 30.02 121.217 30.22C120.797 30.32 120.317 30.38 119.797 30.38C118.497 30.38 117.377 29.9 116.477 28.94C115.577 28 115.117 26.68 115.117 24.98C115.117 23.3 115.577 21.92 116.497 20.88C117.397 19.84 118.577 19.3 120.057 19.3C120.797 19.3 121.517 19.48 122.217 19.82ZM122.857 23.94C122.797 23.18 122.637 22.56 122.357 22.1C121.897 21.26 121.077 20.84 119.957 20.84C119.137 20.84 118.477 21.14 117.917 21.7C117.377 22.3 117.077 23.04 117.057 23.94H122.857ZM132.59 19.86C132.91 20.06 133.25 20.4 133.65 20.88V15.6H135.35V30H133.77V28.54C133.35 29.18 132.87 29.66 132.31 29.94C131.75 30.22 131.11 30.38 130.39 30.38C129.23 30.38 128.21 29.88 127.35 28.9C126.51 27.92 126.07 26.62 126.07 25C126.07 23.46 126.47 22.14 127.25 21.02C128.03 19.92 129.13 19.36 130.57 19.36C131.37 19.36 132.05 19.52 132.59 19.86ZM128.65 27.7C129.13 28.46 129.89 28.84 130.93 28.84C131.75 28.84 132.41 28.48 132.95 27.78C133.45 27.08 133.73 26.08 133.73 24.78C133.73 23.46 133.45 22.48 132.91 21.84C132.37 21.2 131.71 20.88 130.91 20.88C130.03 20.88 129.31 21.24 128.77 21.9C128.21 22.58 127.93 23.58 127.93 24.9C127.93 26.02 128.17 26.96 128.65 27.7ZM154.009 16.7C155.009 17.66 155.569 18.74 155.669 19.96H153.789C153.569 19.04 153.129 18.3 152.509 17.76C151.849 17.22 150.949 16.96 149.789 16.96C148.389 16.96 147.249 17.46 146.369 18.44C145.509 19.44 145.069 20.96 145.069 23C145.069 24.68 145.469 26.04 146.249 27.08C147.029 28.14 148.209 28.66 149.749 28.66C151.189 28.66 152.269 28.12 153.029 27.02C153.429 26.44 153.729 25.68 153.909 24.72H155.809C155.649 26.24 155.089 27.5 154.129 28.52C152.989 29.76 151.449 30.38 149.529 30.38C147.849 30.38 146.449 29.86 145.329 28.86C143.829 27.52 143.089 25.46 143.089 22.68C143.089 20.56 143.649 18.82 144.769 17.48C145.969 16 147.649 15.26 149.769 15.26C151.589 15.26 153.009 15.74 154.009 16.7ZM163.543 23.66C163.943 23.62 164.203 23.44 164.343 23.16C164.423 23 164.463 22.78 164.463 22.48C164.463 21.88 164.243 21.44 163.823 21.18C163.403 20.9 162.783 20.78 162.003 20.78C161.083 20.78 160.423 21.02 160.043 21.52C159.823 21.78 159.683 22.2 159.623 22.74H157.983C158.003 21.44 158.423 20.54 159.243 20.04C160.043 19.54 160.963 19.28 162.043 19.28C163.263 19.28 164.263 19.52 165.023 20C165.803 20.46 166.183 21.2 166.183 22.18V28.2C166.183 28.38 166.223 28.54 166.283 28.64C166.363 28.76 166.523 28.8 166.763 28.8C166.843 28.8 166.923 28.8 167.023 28.78C167.123 28.78 167.223 28.76 167.343 28.76V30.04C167.063 30.12 166.863 30.18 166.703 30.2C166.563 30.22 166.363 30.22 166.123 30.22C165.523 30.22 165.083 30 164.803 29.58C164.663 29.36 164.563 29.04 164.503 28.62C164.143 29.08 163.643 29.5 162.963 29.84C162.283 30.18 161.563 30.36 160.743 30.36C159.783 30.36 158.983 30.06 158.363 29.46C157.763 28.88 157.443 28.14 157.443 27.26C157.443 26.28 157.743 25.54 158.343 25C158.963 24.46 159.743 24.14 160.743 24.02L163.543 23.66ZM159.843 28.42C160.203 28.72 160.643 28.86 161.163 28.86C161.763 28.86 162.383 28.72 162.943 28.42C163.923 27.94 164.423 27.18 164.423 26.1V24.68C164.203 24.82 163.923 24.94 163.583 25.02C163.243 25.1 162.903 25.18 162.583 25.22L161.523 25.36C160.883 25.44 160.403 25.56 160.083 25.76C159.563 26.06 159.283 26.54 159.283 27.22C159.283 27.72 159.463 28.12 159.843 28.42ZM170.776 21.02C171.196 20.5 171.576 20.14 171.916 19.9C172.496 19.5 173.156 19.3 173.896 19.3C174.716 19.3 175.396 19.52 175.896 19.92C176.176 20.16 176.456 20.5 176.676 20.96C177.076 20.4 177.536 19.98 178.056 19.7C178.596 19.44 179.176 19.3 179.836 19.3C181.236 19.3 182.196 19.82 182.716 20.84C182.976 21.38 183.116 22.1 183.116 23.04V30H181.296V22.74C181.296 22.04 181.116 21.56 180.776 21.3C180.416 21.04 179.996 20.9 179.496 20.9C178.796 20.9 178.216 21.14 177.716 21.6C177.216 22.06 176.956 22.84 176.956 23.92V30H175.176V23.18C175.176 22.46 175.096 21.94 174.916 21.62C174.656 21.14 174.156 20.88 173.436 20.88C172.756 20.88 172.156 21.14 171.616 21.66C171.076 22.18 170.796 23.1 170.796 24.46V30H169.036V19.54H170.776V21.02ZM192.217 19.82C192.917 20.18 193.457 20.62 193.817 21.18C194.157 21.7 194.397 22.32 194.517 23.02C194.617 23.5 194.677 24.28 194.677 25.34H186.997C187.037 26.4 187.297 27.24 187.757 27.88C188.217 28.52 188.957 28.84 189.937 28.84C190.857 28.84 191.577 28.54 192.137 27.94C192.437 27.58 192.677 27.18 192.797 26.72H194.517C194.477 27.1 194.337 27.52 194.077 28C193.817 28.48 193.537 28.86 193.197 29.16C192.677 29.68 192.017 30.02 191.217 30.22C190.797 30.32 190.317 30.38 189.797 30.38C188.497 30.38 187.377 29.9 186.477 28.94C185.577 28 185.117 26.68 185.117 24.98C185.117 23.3 185.577 21.92 186.497 20.88C187.397 19.84 188.577 19.3 190.057 19.3C190.797 19.3 191.517 19.48 192.217 19.82ZM192.857 23.94C192.797 23.18 192.637 22.56 192.357 22.1C191.897 21.26 191.077 20.84 189.957 20.84C189.137 20.84 188.477 21.14 187.917 21.7C187.377 22.3 187.077 23.04 187.057 23.94H192.857ZM198.53 21.34C198.67 21 199.01 20.56 199.55 20.06C200.09 19.56 200.69 19.3 201.39 19.3C201.41 19.3 201.47 19.3 201.55 19.32L201.95 19.36V21.22C201.85 21.2 201.77 21.18 201.67 21.18C201.59 21.16 201.49 21.16 201.37 21.16C200.49 21.16 199.81 21.44 199.33 22.02C198.87 22.58 198.63 23.24 198.63 23.98V30H196.87V19.54H198.53V21.34ZM209.09 23.66C209.49 23.62 209.75 23.44 209.89 23.16C209.97 23 210.01 22.78 210.01 22.48C210.01 21.88 209.79 21.44 209.37 21.18C208.95 20.9 208.33 20.78 207.55 20.78C206.63 20.78 205.97 21.02 205.59 21.52C205.37 21.78 205.23 22.2 205.17 22.74H203.53C203.55 21.44 203.97 20.54 204.79 20.04C205.59 19.54 206.51 19.28 207.59 19.28C208.81 19.28 209.81 19.52 210.57 20C211.35 20.46 211.73 21.2 211.73 22.18V28.2C211.73 28.38 211.77 28.54 211.83 28.64C211.91 28.76 212.07 28.8 212.31 28.8C212.39 28.8 212.47 28.8 212.57 28.78C212.67 28.78 212.77 28.76 212.89 28.76V30.04C212.61 30.12 212.41 30.18 212.25 30.2C212.11 30.22 211.91 30.22 211.67 30.22C211.07 30.22 210.63 30 210.35 29.58C210.21 29.36 210.11 29.04 210.05 28.62C209.69 29.08 209.19 29.5 208.51 29.84C207.83 30.18 207.11 30.36 206.29 30.36C205.33 30.36 204.53 30.06 203.91 29.46C203.31 28.88 202.99 28.14 202.99 27.26C202.99 26.28 203.29 25.54 203.89 25C204.51 24.46 205.29 24.14 206.29 24.02L209.09 23.66ZM205.39 28.42C205.75 28.72 206.19 28.86 206.71 28.86C207.31 28.86 207.93 28.72 208.49 28.42C209.47 27.94 209.97 27.18 209.97 26.1V24.68C209.75 24.82 209.47 24.94 209.13 25.02C208.79 25.1 208.45 25.18 208.13 25.22L207.07 25.36C206.43 25.44 205.95 25.56 205.63 25.76C205.11 26.06 204.83 26.54 204.83 27.22C204.83 27.72 205.01 28.12 205.39 28.42Z" fill="#57A04C"/>
</svg>
