<svg width="251" height="251" viewBox="0 0 251 251" fill="none" xmlns="http://www.w3.org/2000/svg">
<path d="M111.844 16.8816C118.874 8.19094 132.126 8.19094 139.157 16.8816C144.253 23.1819 152.998 25.1779 160.324 21.7129C170.429 16.9332 182.368 22.6831 184.932 33.5635C186.79 41.4512 193.803 47.0438 201.907 47.1003C213.085 47.1786 221.347 57.5394 218.936 68.4548C217.188 76.3675 221.08 84.449 228.356 88.016C238.393 92.9363 241.342 105.856 234.434 114.644C229.426 121.015 229.426 129.985 234.434 136.356C241.342 145.144 238.393 158.064 228.356 162.984C221.08 166.551 217.188 174.632 218.936 182.545C221.347 193.461 213.085 203.821 201.907 203.9C193.803 203.956 186.79 209.549 184.932 217.437C182.368 228.317 170.429 234.067 160.324 229.287C152.998 225.822 144.253 227.818 139.157 234.118C132.126 242.809 118.874 242.809 111.844 234.118C106.747 227.818 98.0019 225.822 90.6765 229.287C80.5714 234.067 68.6318 228.317 66.0684 217.437C64.21 209.549 57.1968 203.956 49.0935 203.9C37.9154 203.821 29.6528 193.461 32.0641 182.545C33.8121 174.632 29.9202 166.551 22.6438 162.984C12.6066 158.064 9.65771 145.144 16.5661 136.356C21.5742 129.985 21.5742 121.015 16.5661 114.644C9.65771 105.856 12.6066 92.9363 22.6438 88.016C29.9202 84.449 33.8121 76.3675 32.0641 68.4548C29.6528 57.5394 37.9154 47.1786 49.0935 47.1003C57.1968 47.0438 64.21 41.4512 66.0684 33.5635C68.6318 22.6831 80.5714 16.9332 90.6765 21.7129C98.0019 25.1779 106.747 23.1819 111.844 16.8816Z" fill="#4AD769"/>
<path d="M43.1431 134.114C38.5533 135.134 35.0812 132.641 34.0266 127.896C32.972 123.152 35.1711 119.398 39.8493 118.358C43.5126 117.544 46.6045 119.265 47.7472 122.53L44.393 123.276C43.6131 121.643 42.1274 120.793 40.2956 121.199C37.7801 121.759 36.7407 124.167 37.4028 127.146C38.0602 130.103 40.0048 131.87 42.4981 131.316C44.3739 130.899 45.3596 129.499 45.374 127.69L48.706 126.949C49.0767 130.386 46.9167 133.275 43.1431 134.114ZM57.1379 131.003C53.5191 131.807 50.6427 130.015 49.8679 126.529C49.0927 123.042 50.9389 120.2 54.5578 119.396C58.177 118.591 61.053 120.383 61.8282 123.87C62.6081 127.379 60.7571 130.198 57.1379 131.003ZM56.5739 128.465C58.3173 128.077 59.0991 126.491 58.6724 124.571C58.2456 122.651 56.8651 121.546 55.1221 121.933C53.3788 122.321 52.6187 123.902 53.0455 125.822C53.4723 127.742 54.8306 128.853 56.5739 128.465ZM75.8218 114.669C78.1611 114.149 80.309 115.061 81.1182 118.702L82.5653 125.212L79.4539 125.903L78.0461 119.57C77.6685 117.871 76.8543 117.126 75.5081 117.425C74.1623 117.724 73.4782 118.918 73.8606 120.639L75.2391 126.84L72.1278 127.532L70.72 121.199C70.3419 119.499 69.5281 118.754 68.1597 119.058C66.8139 119.358 66.1614 120.591 66.5395 122.29L67.9126 128.469L64.8012 129.161L62.2799 117.818L64.9941 117.215L65.5951 118.563C66.0831 117.528 66.9339 116.668 68.5837 116.278C69.9693 115.947 71.3841 116.165 72.4088 117.442C72.9334 116.052 74.1007 115.052 75.8218 114.669ZM83.2949 111.873C82.28 112.098 81.3189 111.525 81.0983 110.532C80.8726 109.517 81.5001 108.59 82.515 108.364C83.5303 108.139 84.4915 108.712 84.7171 109.728C84.9377 110.721 84.3102 111.647 83.2949 111.873ZM84.5195 124.777L81.9982 113.435L85.1318 112.738L87.6527 124.081L84.5195 124.777ZM93.7582 110.682C96.2078 110.138 98.5934 110.973 99.4567 114.857L100.855 121.146L97.7434 121.838L96.414 115.858C95.9872 113.938 95.0335 113.084 93.4667 113.433C91.8558 113.791 91.1839 115.145 91.6204 117.109L92.9105 122.912L89.7991 123.604L87.2778 112.261L89.992 111.658L90.593 113.007C91.125 111.962 92.0148 111.069 93.7582 110.682ZM108.983 109.081L108.9 107.455L111.636 106.847L114.084 117.858C114.707 120.661 113.447 123.117 109.1 124.084C105.944 124.785 103.463 123.832 102.724 121.24L105.858 120.544C106.385 121.561 107.383 121.988 108.817 121.669C110.561 121.281 111.407 120.19 111.014 118.425L110.749 117.233C110.21 118.349 109.222 119.217 107.633 119.57C104.593 120.269 101.869 118.536 101.089 115.027C100.318 111.562 102.047 108.816 105.07 108.144C106.703 107.781 108.013 108.254 108.983 109.081ZM107.763 116.924C109.462 116.547 110.232 115.009 109.815 113.134C109.393 111.236 108.035 110.125 106.335 110.503C104.636 110.88 103.849 112.445 104.271 114.343C104.693 116.24 106.064 117.302 107.763 116.924ZM120.432 112.835L123.389 112.177C123.72 113.146 124.733 113.638 126.255 113.3C127.557 113.01 128.259 112.415 128.082 111.62C127.876 110.693 127.089 110.799 125.203 110.963C122.487 111.243 120.302 111.103 119.782 108.764C119.282 106.514 120.917 104.598 123.835 103.973C126.88 103.296 129.276 104.176 129.945 106.459L126.966 107.121C126.677 106.236 125.694 105.876 124.436 106.155C123.222 106.425 122.526 107.043 122.687 107.771C122.879 108.632 123.87 108.504 125.547 108.34C128.209 108.026 130.504 108.141 131.073 110.701C131.574 112.952 129.774 114.857 126.729 115.534C123.573 116.235 121.104 115.232 120.432 112.835ZM139.07 112.79C135.451 113.595 132.575 111.803 131.8 108.316C131.025 104.83 132.871 101.987 136.49 101.183C140.109 100.379 142.985 102.171 143.761 105.657C144.54 109.166 142.689 111.986 139.07 112.79ZM138.506 110.253C140.249 109.865 141.032 108.279 140.605 106.359C140.178 104.439 138.797 103.333 137.054 103.721C135.311 104.108 134.551 105.69 134.978 107.61C135.404 109.53 136.763 110.64 138.506 110.253ZM152.302 109.849C148.683 110.654 145.807 108.862 145.032 105.375C144.257 101.888 146.103 99.0464 149.722 98.242C153.341 97.4375 156.217 99.2296 156.992 102.716C157.772 106.225 155.921 109.045 152.302 109.849ZM151.738 107.311C153.481 106.924 154.263 105.337 153.836 103.417C153.41 101.498 152.029 100.392 150.286 100.78C148.542 101.167 147.782 102.749 148.209 104.669C148.636 106.588 149.995 107.699 151.738 107.311ZM163.924 95.085C166.374 94.5405 168.76 95.3765 169.623 99.26L171.021 105.549L167.909 106.241L166.58 100.261C166.153 98.341 165.199 97.4878 163.633 97.8358C162.022 98.194 161.35 99.5476 161.787 101.512L163.077 107.315L159.965 108.007L157.444 96.6642L160.158 96.0609L160.759 97.4094C161.291 96.3649 162.181 95.4724 163.924 95.085ZM184.023 102.798C180.404 103.602 177.528 101.81 176.753 98.3238C175.978 94.8371 177.824 91.995 181.443 91.1906C185.062 90.3861 187.938 92.1786 188.713 95.6649C189.493 99.1735 187.642 101.993 184.023 102.798ZM183.459 100.26C185.202 99.8727 185.984 98.2864 185.558 96.3665C185.131 94.4466 183.75 93.3408 182.007 93.7282C180.264 94.116 179.504 95.6973 179.931 97.6172C180.357 99.5371 181.716 100.648 183.459 100.26ZM195.645 88.0336C198.095 87.4891 200.481 88.3251 201.344 92.209L202.742 98.498L199.631 99.1898L198.301 93.2095C197.874 91.2896 196.921 90.4364 195.354 90.7848C193.743 91.1426 193.071 92.4962 193.508 94.4602L194.798 100.264L191.686 100.955L189.165 89.6132L191.879 89.0099L192.48 90.3584C193.012 89.3139 193.902 88.421 195.645 88.0336Z" fill="white"/>
<mask id="mask0_6198_15881" style="mask-type:luminance" maskUnits="userSpaceOnUse" x="47" y="111" width="171" height="58">
<path d="M212.541 111.079L47.9395 148.699L52.4045 168.235L217.006 130.615L212.541 111.079Z" fill="white"/>
</mask>
<g mask="url(#mask0_6198_15881)">
<path d="M118.294 147.159C118.62 146.531 118.253 145.93 117.606 145.805C116.863 145.664 116.024 145.543 115.087 145.444C112.498 145.171 110.43 144.053 109.673 141.353C109.079 139.23 109.456 137.171 110.961 135.597C112.409 134.083 114.347 133.41 116.334 133.236C118.208 133.069 120.737 133.68 121.565 135.624C122.187 137.08 121.657 138.807 120.037 139.209C118.74 139.529 117.586 138.88 116.39 138.446C115.722 138.205 115.328 138.392 115.209 139.008C115.096 139.583 115.942 139.878 116.376 139.94C117.073 140.037 117.766 140.13 118.454 140.219C120.727 140.508 123.01 141.398 123.985 143.618C124.514 144.823 124.737 146.044 124.655 147.281C124.497 149.662 122.712 151.635 120.564 152.433C119.296 152.905 118.069 153.165 116.883 153.215C114.661 153.308 111.551 152.156 111.116 149.601C110.751 147.446 112.795 145.897 114.722 146.496C115.253 146.661 115.805 146.877 116.377 147.146C116.827 147.357 117.989 147.749 118.294 147.159Z" fill="white"/>
<path d="M82.1534 160.51C78.2649 159.767 75.1897 156.955 74.2645 153.043C73.5758 150.129 74.0501 147.469 75.6878 145.061C77.2012 142.837 79.3573 141.474 82.1558 140.97C84.5796 140.533 86.9103 140.995 89.1479 142.357C90.7436 143.33 91.9405 145.167 91.143 146.988C90.6196 148.184 89.7037 148.808 88.3965 148.861C87.0121 148.918 86.1106 147.616 84.8415 147.245C83.9342 146.98 83.0491 147.054 82.1854 147.469C80.0492 148.494 79.5826 151.468 81.1802 153.243C82.7599 154.997 85.4001 154.848 86.7696 152.935C87.2603 152.248 87.6462 151.382 88.3271 150.897C89.0388 150.392 89.7926 150.22 90.5884 150.38C93.07 150.881 93.7902 153.213 92.6662 155.324C91.23 158.019 89.0828 159.703 86.2252 160.376C84.8014 160.711 83.4443 160.756 82.1534 160.51Z" fill="#0E1318"/>
<path d="M51.6479 164.925L48.6796 151.938C48.6803 151.734 48.6827 151.53 48.6874 151.326C48.7447 148.521 51.9507 147.385 53.9435 149.211C54.3006 149.538 54.4826 149.882 54.6065 150.392C54.8369 151.347 55.0633 152.294 55.2851 153.234C55.3455 153.49 55.3081 153.756 55.4328 154C55.4749 154.082 55.5119 154.08 55.5446 153.995C56.2743 152.094 57.0082 150.207 57.7464 148.336C58.7079 145.897 61.7097 145.595 63.2072 147.656C63.805 148.481 63.9044 149.521 63.5533 150.453C62.8915 152.216 62.2234 153.923 61.5492 155.574C61.532 155.615 61.5406 155.65 61.5749 155.68C62.9597 156.829 64.4501 158.042 66.0461 159.321C66.9032 160.007 67.3545 160.716 67.3837 161.854C67.4262 163.498 66.0777 164.953 64.4376 165.028C63.6944 165.062 63.0743 164.877 62.5769 164.473C60.9988 163.193 59.1927 161.747 57.159 160.135C57.0881 160.079 57.0148 160.027 56.94 159.98C56.8207 159.905 56.7794 159.936 56.8156 160.073C57.0503 160.962 57.2642 161.856 57.4583 162.758C57.6711 163.747 57.7237 164.485 57.6158 164.968C57.0366 167.553 53.4595 168.235 52.1137 165.865C51.9418 165.563 51.7863 165.25 51.6479 164.925Z" fill="#0E1318"/>
<path d="M67.9921 144.55L67.7879 144.596C66.186 144.959 65.1867 146.575 65.5566 148.206L68.459 161.007C68.8289 162.637 70.4273 163.665 72.0292 163.302L72.2334 163.256C73.8357 162.892 74.8346 161.276 74.4647 159.645L71.5622 146.845C71.1924 145.214 69.594 144.187 67.9921 144.55Z" fill="#0E1318"/>
<path d="M98.7751 143.883C99.4236 142.114 100.123 140.295 100.874 138.427C101.86 135.974 104.882 135.809 106.327 137.834C107.064 138.87 106.942 139.968 106.473 141.14C105.832 142.746 105.235 144.262 104.684 145.688C104.67 145.722 104.669 145.76 104.678 145.795C104.687 145.83 104.708 145.861 104.736 145.884C106.404 147.24 107.978 148.525 109.455 149.739C110.58 150.661 110.791 152.332 110.092 153.551C109.352 154.842 107.914 155.497 106.517 155.062C106.191 154.961 105.714 154.657 105.089 154.153C103.418 152.809 101.78 151.488 100.175 150.189C99.9674 150.02 99.896 150.067 99.9607 150.329C100.227 151.41 100.472 152.506 100.694 153.617C101 155.147 100.395 156.739 98.8944 157.229C96.5317 157.996 95.0877 156.676 94.565 154.414C93.7703 150.975 92.8953 147.146 91.94 142.929C91.6742 141.758 91.6423 140.639 92.3493 139.712C92.9179 138.967 93.6643 138.557 94.5892 138.48C95.8816 138.372 97.3759 139.089 97.7236 140.468C97.9761 141.472 98.2447 142.604 98.5292 143.865C98.5935 144.152 98.6753 144.158 98.7751 143.883Z" fill="#0E1318"/>
<path d="M150.752 142.86C150.686 142.772 150.6 142.741 150.494 142.765L145.107 143.992C145.024 144.011 144.979 144.063 144.972 144.149C144.826 145.938 143.574 147.243 141.834 147.311C140.799 147.351 139.734 146.741 139.2 145.848C138.75 145.094 138.635 144.195 138.855 143.151C139.836 138.486 140.791 133.988 141.722 129.658C142.058 128.102 143.004 127.278 144.519 127.096C145.631 126.962 146.57 127.386 147.337 128.369C150.222 132.069 153.087 135.755 155.929 139.426C156.718 140.443 156.903 141.511 156.484 142.627C155.88 144.24 153.978 145.059 152.421 144.364C151.756 144.069 151.194 143.438 150.752 142.86Z" fill="white"/>
<path d="M134.083 135.693C134.767 138.626 135.447 141.598 136.123 144.61C136.474 146.169 136.48 147.786 135.089 148.7C133.733 149.59 131.805 149.407 130.868 147.984C130.559 147.511 130.337 146.987 130.203 146.411C129.48 143.285 128.762 140.151 128.047 137.009C128.044 136.994 128.037 136.98 128.028 136.967C128.019 136.955 128.008 136.944 127.995 136.936C127.982 136.928 127.967 136.923 127.952 136.921C127.937 136.919 127.922 136.92 127.908 136.924C127.291 137.101 126.673 137.236 126.055 137.329C122.386 137.887 121.231 132.859 124.715 131.821C127.351 131.035 130.019 130.466 132.803 129.87C133.481 129.726 134.186 129.599 134.917 129.487C136.163 129.299 137.103 129.756 137.738 130.859C138.299 131.837 138.301 132.828 137.742 133.832C137.075 135.029 135.375 135.279 134.179 135.538C134.095 135.556 134.064 135.607 134.083 135.693Z" fill="white"/>
<path d="M163.592 136.858C163.389 136.645 163.327 136.681 163.407 136.965C163.689 137.975 163.875 138.845 163.967 139.576C164.195 141.393 162.836 142.82 161.06 142.928C159.267 143.038 158.163 141.596 157.782 139.938C156.51 134.405 155.618 130.497 155.105 128.216C154.603 125.971 155.875 124.634 157.932 124.121C159.36 123.766 160.762 123.451 162.138 123.175C164.997 122.599 167.807 124.168 169.201 126.704C170.383 128.848 170.155 131.273 168.996 133.421C168.976 133.457 168.969 133.498 168.976 133.538C168.982 133.579 169.001 133.616 169.03 133.645C169.743 134.343 170.412 135.034 171.037 135.716C172.344 137.143 172.377 139.28 170.804 140.456C169.855 141.165 168.843 141.309 167.766 140.89C167.373 140.739 166.922 140.39 166.411 139.844C165.469 138.838 164.529 137.843 163.592 136.858Z" fill="white"/>
<path d="M180.959 124.824C180.94 124.827 180.922 124.834 180.906 124.844C180.891 124.854 180.877 124.868 180.866 124.884C180.856 124.9 180.849 124.918 180.845 124.936C180.842 124.956 180.842 124.975 180.847 124.994C181.608 128.291 182.322 131.433 182.989 134.418C183.186 135.29 183.125 136.112 182.809 136.883C182.311 138.097 180.842 138.718 179.603 138.52C178.033 138.269 177.306 137.122 176.961 135.647C176.263 132.64 175.553 129.545 174.832 126.363C174.827 126.34 174.817 126.318 174.803 126.299C174.789 126.28 174.772 126.264 174.752 126.252C174.731 126.24 174.709 126.232 174.686 126.23C174.663 126.227 174.64 126.229 174.618 126.236C173.994 126.429 173.358 126.569 172.707 126.658C170.992 126.891 169.497 125.784 169.424 123.993C169.361 122.5 170.056 121.546 171.506 121.13C172.382 120.88 173.241 120.613 174.117 120.409C175.869 120.001 177.677 119.593 179.541 119.184C180.269 119.025 181.016 118.896 181.783 118.796C182.486 118.706 183.192 118.778 183.764 119.288C184.693 120.116 185.061 121.073 184.869 122.158C184.518 124.151 182.599 124.564 180.959 124.824Z" fill="white"/>
<path d="M193.989 128.01L194.229 129.065C194.239 129.108 194.264 129.145 194.301 129.169C194.337 129.192 194.381 129.2 194.423 129.191C195.301 128.998 196.172 128.805 197.036 128.613C198.397 128.31 199.916 128.423 200.742 129.764C201.625 131.199 201.329 133.011 199.791 133.798C199.386 134.005 198.95 134.164 198.481 134.275C196.585 134.723 194.675 135.153 192.75 135.565C192.051 135.713 191.454 135.721 190.96 135.587C189.348 135.148 188.942 133.716 188.598 132.241C187.723 128.495 186.904 124.929 186.14 121.543C186.043 121.113 185.978 120.684 185.946 120.254C185.825 118.674 186.925 117.534 188.418 117.163C190.859 116.554 193.001 116.08 194.844 115.741C196.807 115.377 198.387 116.755 198.287 118.824C198.211 120.364 197.07 121.158 195.714 121.481C194.75 121.711 193.792 121.931 192.841 122.141C192.795 122.151 192.755 122.179 192.729 122.219C192.704 122.259 192.695 122.307 192.704 122.354L192.872 123.225C192.882 123.273 192.91 123.317 192.95 123.344C192.991 123.372 193.04 123.383 193.088 123.374C193.703 123.26 194.346 123.121 195.017 122.955C196.538 122.582 197.951 122.975 198.274 124.731C198.733 127.225 195.664 127.448 194.106 127.819C194.005 127.844 193.966 127.907 193.989 128.01Z" fill="white"/>
<path d="M216.147 126.854L216.321 127.616C216.445 129.473 215.05 130.931 213.244 130.988C212.028 131.027 211.378 130.396 210.554 129.538C209.627 128.569 208.71 127.594 207.802 126.611C207.702 126.502 207.669 126.52 207.702 126.665C207.888 127.47 208.061 128.279 208.222 129.091C208.574 130.881 207.529 132.453 205.749 132.76C203.829 133.092 202.53 131.713 202.111 129.903C200.947 124.87 200.056 120.967 199.437 118.195C198.845 115.535 200.417 114.404 202.618 113.893C203.968 113.581 205.204 113.306 206.326 113.068C210.131 112.265 214.138 115.309 214.287 119.338C214.336 120.696 214.014 121.996 213.319 123.239C213.292 123.288 213.281 123.344 213.289 123.4C213.297 123.456 213.323 123.508 213.362 123.548C214.058 124.239 214.735 124.934 215.395 125.633C215.646 125.899 215.897 126.306 216.147 126.854Z" fill="white"/>
</g>
</svg>
